<?xml version="1.0" standalone="no"?><!DOCTYPE svg PUBLIC "-//W3C//DTD SVG 1.1//EN" "http://www.w3.org/Graphics/SVG/1.1/DTD/svg11.dtd"><svg t="1637933679936" class="icon" viewBox="0 0 1024 1024" version="1.1" xmlns="http://www.w3.org/2000/svg" p-id="8235" xmlns:xlink="http://www.w3.org/1999/xlink" width="200" height="200"><defs><style type="text/css"></style></defs><path d="M513.8944 670.1056a244.8384 244.8384 0 1 1 244.7872-244.8384 245.0944 245.0944 0 0 1-244.7872 244.8384z m0-456.6016a211.7632 211.7632 0 1 0 211.7632 211.7632 212.0192 212.0192 0 0 0-211.7632-211.7632z" fill="#666666" p-id="8236"></path><path d="M460.8 747.776a16.8448 16.8448 0 0 1-2.7648-0.256 324.8128 324.8128 0 0 1-53.9136-14.08 16.4864 16.4864 0 0 1-10.9568-14.3872 49.6128 49.6128 0 0 0-71.68-40.96 16.5888 16.5888 0 0 1-17.92-2.1504 331.6736 331.6736 0 0 1-39.424-39.2192 16.5888 16.5888 0 0 1-2.2528-17.9712 49.664 49.664 0 0 0-41.4208-71.3728 16.384 16.384 0 0 1-14.4384-10.8544 321.4848 321.4848 0 0 1-14.3872-53.8624A16.4864 16.4864 0 0 1 198.6048 465.92a49.6128 49.6128 0 0 0 0-81.92 16.64 16.64 0 0 1-6.9632-16.5888 330.496 330.496 0 0 1 14.6432-54.272A16.5888 16.5888 0 0 1 220.5184 302.08a49.5616 49.5616 0 0 0 40.96-70.3488 16.4864 16.4864 0 0 1 2.3552-17.6128A329.5744 329.5744 0 0 1 304.1792 174.08a16.4864 16.4864 0 0 1 17.3568-2.3552 49.5616 49.5616 0 0 0 69.7856-40.1408 16.5376 16.5376 0 0 1 10.8032-13.824 321.0752 321.0752 0 0 1 55.808-14.7456 16.4864 16.4864 0 0 1 16.0768 6.4512 49.408 49.408 0 0 0 79.7184 0 16.5888 16.5888 0 0 1 16.0768-6.4512 324.4544 324.4544 0 0 1 56.32 15.0528 16.64 16.64 0 0 1 10.752 13.5168 49.4592 49.4592 0 0 0 68.7104 39.6288 16.4864 16.4864 0 0 1 17.0496 2.4576 328.4992 328.4992 0 0 1 41.3696 41.3696 16.5376 16.5376 0 0 1 2.6112 17.0496 49.408 49.408 0 0 0 39.936 68.4544 16.5888 16.5888 0 0 1 13.568 10.6496 321.28 321.28 0 0 1 15.36 56.32 16.4352 16.4352 0 0 1-6.3488 16.128 49.4592 49.4592 0 0 0 0.3072 79.5648 16.4352 16.4352 0 0 1 6.5536 16.0256 327.3728 327.3728 0 0 1-14.4896 55.9104 16.4864 16.4864 0 0 1-13.7728 10.8544 49.2032 49.2032 0 0 0-37.6832 24.4736 49.9712 49.9712 0 0 0-2.0992 45.5168 16.4864 16.4864 0 0 1-2.2528 17.408 325.5296 325.5296 0 0 1-39.9872 40.6016 16.384 16.384 0 0 1-17.6128 2.4576 49.6128 49.6128 0 0 0-70.144 41.2672 16.4352 16.4352 0 0 1-10.7008 14.1824 330.8544 330.8544 0 0 1-53.8112 14.9504 16.5888 16.5888 0 0 1-16.5888-6.8608 49.6128 49.6128 0 0 0-81.92 0.4608 16.4864 16.4864 0 0 1-14.1312 7.3216z m-36.2496-42.2912c9.6768 3.0208 19.5072 5.632 29.44 7.68a82.6368 82.6368 0 0 1 122.88-0.768 291.4304 291.4304 0 0 0 29.952-8.2432 82.5344 82.5344 0 0 1 104.8576-61.44 307.6608 307.6608 0 0 0 22.528-23.1936 82.4832 82.4832 0 0 1 59.392-104.4992 308.8384 308.8384 0 0 0 8.2944-32 82.9952 82.9952 0 0 1-25.6-59.8528 81.92 81.92 0 0 1 25.0368-59.1872 300.2368 300.2368 0 0 0-8.9088-32.5632 82.4832 82.4832 0 0 1-59.648-102.4 304.896 304.896 0 0 0-24.1152-24.0128 82.5344 82.5344 0 0 1-102.4-59.136 305.7152 305.7152 0 0 0-32.6144-8.704 82.432 82.432 0 0 1-118.9888 0 288.512 288.512 0 0 0-32 8.448 82.4832 82.4832 0 0 1-104.4992 60.1088 298.1888 298.1888 0 0 0-22.8352 22.6816 82.5856 82.5856 0 0 1-61.0816 105.1648A288.1024 288.1024 0 0 0 226.1504 363.52a82.7392 82.7392 0 0 1 0 122.88 296.0896 296.0896 0 0 0 7.8336 29.3888 82.688 82.688 0 0 1 62.0032 106.8544A301.4656 301.4656 0 0 0 317.44 644.096a82.6368 82.6368 0 0 1 107.1616 61.44z" fill="#666666" p-id="8237"></path><path d="M513.8944 292.864l43.008 87.1936 96.2048 13.9776-69.632 67.84 16.4352 95.7952-86.016-45.2608-86.0672 45.2608 16.4352-95.7952-69.5808-67.84 96.1536-13.9776 43.0592-87.1936zM355.7888 922.3168l-47.5648-128.4096-122.2656 65.2288 97.8944-209.4592 29.9008 13.9776-55.9104 119.6544 68.1984-36.352 29.184 78.7968L399.36 702.464l31.1296 11.1616-74.7008 208.6912zM667.5968 922.3168l-74.752-208.6912 31.1296-11.1616 44.1344 123.2896 29.184-78.7968 68.1984 36.352-55.9104-119.6544 29.952-13.9776 97.8432 209.4592-122.2144-65.2288-47.5648 128.4096z" fill="#666666" p-id="8238"></path></svg>